# xmcd
#
# Track frame offsets: 
#        150
#        16322
#        33084
#        55376
#        76977
#        95779
#        113400
#        130913
#        152211
#        179821
#
# Disc length: 2585 seconds
#
# Revision: 2
# Processed by: cddbd v1.5.2PL0 Copyright (c) Steve Scherf et al.
# Submitted via: ExactAudioCopy v0.95a5
#
DISCID=7d0a170a
DTITLE=Gary Chapman - Everyday Man
DYEAR=1987
DGENRE=Country
TTITLE0=Everyday Man
TTITLE1=When We're Together (Love's So Strong)
TTITLE2=Love History
TTITLE3=Breakin' Hearts
TTITLE4=Love Like Blood
TTITLE5=Around The World
TTITLE6=The Hurt Is Worth The Chance
TTITLE7=Love That Girl
TTITLE8=Cecil (Life Goes On)
TTITLE9=Your Love Stays With Me
EXTD=
EXTT0=
EXTT1=
EXTT2=
EXTT3=
EXTT4=
EXTT5=
EXTT6=
EXTT7=
EXTT8=
EXTT9=
PLAYORDER=
